<svg width="41" height="41" viewBox="0 0 41 41" fill="none" xmlns="http://www.w3.org/2000/svg">
<path d="M34.9327 40.5304C34.5224 40.5304 34.1923 40.2004 34.1923 39.7901V34.8486C34.1923 33.5107 35.0398 32.3066 36.3065 31.8606L36.6276 31.7446V12.9422L33.1576 14.6726V20.2652C33.1576 22.4862 31.7659 24.5377 29.2414 26.054C26.8329 27.4989 23.6483 28.2928 20.2674 28.2928C16.8063 28.2928 13.5592 27.4633 11.1239 25.9469C8.70644 24.4485 7.37728 22.4237 7.37728 20.2652V14.6726L0.410352 11.2029C0.151657 11.0781 0 10.8283 0 10.5429C0 10.2575 0.151649 10.0077 0.401423 9.88285L19.9284 0.0802753C20.0265 0.0267581 20.1425 0 20.2585 0C20.3745 0 20.4904 0.0267581 20.5885 0.0802753L40.1156 9.88285C40.3653 10.0077 40.5259 10.2664 40.5259 10.5429C40.5259 10.8283 40.3653 11.0781 40.1156 11.2029L38.0906 12.2108V31.7536L38.4117 31.8695C39.6785 32.3155 40.5259 33.5196 40.5259 34.8576V39.799C40.5259 40.2093 40.1958 40.5393 39.7855 40.5393H34.9327V40.5304ZM37.3502 33.1539C36.4225 33.1628 35.6731 33.921 35.6731 34.8486V39.0497H39.0629V34.8486C39.0629 33.921 38.3047 33.1628 37.377 33.1539H37.3502ZM8.84917 20.2652C8.84917 22.0402 10.0891 23.7081 12.3371 24.9569C14.4958 26.161 17.3147 26.8211 20.2585 26.8211C23.2023 26.8211 26.0211 26.161 28.1799 24.9569C30.4279 23.7081 31.6678 22.0402 31.6678 20.2652V15.404L20.5796 20.9252C20.4815 20.9788 20.3655 21.0055 20.2496 21.0055C20.1336 21.0055 20.0265 20.9788 19.9195 20.9252L8.83131 15.404V20.2652H8.84917ZM2.39068 10.5429L20.2674 19.4446L38.1441 10.5429L20.2674 1.56984L2.39068 10.5429Z" fill="#E9C515"/>
</svg>
