<svg width="31" height="40" viewBox="0 0 31 40" fill="none" xmlns="http://www.w3.org/2000/svg">
<path d="M3.20245 39.9589C1.43619 39.9589 0 38.5228 0 36.7568V3.20195C0 1.4359 1.43619 -0.00012207 3.20245 -0.00012207H19.9016C20.1157 -0.00012207 20.3298 0.0890704 20.4815 0.2407L30.0264 9.78448C30.178 9.93611 30.2673 10.1502 30.2673 10.3642V36.7657C30.2673 38.5317 28.8311 39.9678 27.0648 39.9678H3.20245V39.9589ZM3.20245 1.63213C2.33716 1.63213 1.63245 2.33676 1.63245 3.20195V36.7568C1.63245 37.622 2.33716 38.3266 3.20245 38.3266H27.0559C27.9212 38.3266 28.6259 37.622 28.6259 36.7568V11.1759H22.2834C20.5172 11.1759 19.0809 9.73988 19.0809 7.97383V1.63213H3.20245ZM20.7223 7.97383C20.7223 8.83902 21.427 9.54365 22.2923 9.54365H27.4752L20.7223 2.79165V7.97383Z" fill="#E9C515"/>
<path d="M7.97486 18.4899C7.52883 18.4899 7.15417 18.1242 7.15417 17.6694C7.15417 17.2145 7.51991 16.8489 7.97486 16.8489H22.2923C22.7383 16.8489 23.113 17.2145 23.113 17.6694C23.113 18.1242 22.7472 18.4899 22.2923 18.4899H7.97486Z" fill="#E9C515"/>
<path d="M7.97486 23.2615C7.52883 23.2615 7.15417 22.8958 7.15417 22.441C7.15417 21.9862 7.51991 21.6206 7.97486 21.6206H22.2923C22.7383 21.6206 23.113 21.9862 23.113 22.441C23.113 22.8958 22.7472 23.2615 22.2923 23.2615H7.97486Z" fill="#E9C515"/>
<path d="M7.97486 28.0334C7.52883 28.0334 7.15417 27.6678 7.15417 27.213C7.15417 26.7582 7.51991 26.3926 7.97486 26.3926H22.2923C22.7383 26.3926 23.113 26.7582 23.113 27.213C23.113 27.6678 22.7472 28.0334 22.2923 28.0334H7.97486Z" fill="#E9C515"/>
<path d="M7.97486 32.8057C7.52883 32.8057 7.15417 32.44 7.15417 31.985C7.15417 31.5301 7.51991 31.1644 7.97486 31.1644H17.5198C17.9658 31.1644 18.3405 31.5301 18.3405 31.985C18.3405 32.44 17.9748 32.8057 17.5198 32.8057H7.97486Z" fill="#E9C515"/>
</svg>
