<svg width="33" height="38" viewBox="0 0 33 38" fill="none" xmlns="http://www.w3.org/2000/svg">
<path d="M29.4198 12.9153C29.4198 5.78868 23.6393 0 16.5029 0C9.36652 0 3.58601 5.77976 3.58601 12.9153C1.73947 13.1472 0 14.3513 0 17.1431V23.8861C0 27.0436 2.21227 28.1942 4.30858 28.1942H6.38709C6.77959 28.1942 7.10073 27.8731 7.10073 27.4806V13.5842C7.10073 13.1918 6.77959 12.8707 6.38709 12.8707H5.03115C5.03115 6.52899 10.1694 1.39142 16.5119 1.39142C22.8543 1.39142 27.9925 6.52899 27.9925 12.8707H26.6188C26.2263 12.8707 25.9051 13.1918 25.9051 13.5842V27.445C25.9051 27.8374 26.2263 28.1585 26.6188 28.1585H27.9836C27.7784 33.082 25.4145 34.2415 20.6866 34.4467V33.965C20.6866 33.1712 20.0443 32.529 19.2504 32.529H14.7366C13.9427 32.529 13.3005 33.1712 13.3005 33.965V36.293C13.3005 37.0868 13.9427 37.729 14.7366 37.729H19.2593C20.0533 37.729 20.6956 37.0868 20.6956 36.293V35.8916C25.245 35.6865 29.1789 34.741 29.4109 28.1228C31.2574 27.8909 32.9969 26.6868 32.9969 23.895V17.152C33.0058 14.3424 31.2663 13.1383 29.4198 12.9153ZM5.67345 14.2532V26.7314H4.27291C3.21137 26.7314 1.40049 26.3568 1.40049 23.8594V17.1163C1.40049 14.6456 3.18461 14.2443 4.27291 14.2443H5.67345V14.2532ZM19.2683 35.2227V36.3108H14.7456V33.9829H19.2683V35.2227ZM31.5696 23.8861C31.5696 26.3568 29.7855 26.7582 28.6972 26.7582H27.3324V14.3067H28.7329C29.7945 14.3067 31.6053 14.6813 31.6053 17.1787L31.5696 23.8861Z" fill="#E9C515"/>
</svg>
