<svg width="44" height="44" viewBox="0 0 44 44" fill="none" xmlns="http://www.w3.org/2000/svg">
<path d="M43.1381 5.6191C43.0043 5.30692 42.7099 5.11069 42.3709 5.11069L38.2051 5.12853L38.1872 0.82938C38.1872 0.374491 37.8126 -0.00012207 37.3487 -0.00012207C37.1257 -0.00012207 36.9205 0.0890708 36.7599 0.24962L31.7912 5.2534C31.6396 5.40503 31.5504 5.6191 31.5504 5.83316V10.605L30.5602 11.604C30.5334 11.5594 30.4978 11.5148 30.4621 11.4702C22.951 4.73607 11.399 5.36935 4.66398 12.8884C-2.071 20.4074 -1.43766 31.9491 6.08233 38.6833C13.5934 45.4174 25.1455 44.7841 31.8804 37.2651C37.5271 30.9591 38.1069 21.6026 33.281 14.6544C33.0223 14.2798 32.4959 14.1817 32.1213 14.4493C31.7466 14.708 31.6485 15.2342 31.9161 15.6088C37.1614 23.1546 35.2881 33.519 27.7413 38.7636C20.1946 44.0082 9.82895 42.1351 4.58369 34.5893C-0.661567 27.0435 1.21173 16.6791 8.75848 11.4345C15.092 7.03728 23.6111 7.56352 29.3559 12.71C29.3738 12.7279 29.4005 12.7368 29.4184 12.7457L25.8591 16.3045C23.7539 14.4582 21.0509 13.4503 18.2499 13.4503C11.8182 13.4503 6.60864 18.6592 6.60864 25.0901C6.60864 31.521 11.8182 36.7299 18.2499 36.7299C24.6816 36.7299 29.8912 31.521 29.8912 25.0901C29.8912 23.226 29.4451 21.3975 28.5888 19.7474C28.3747 19.3371 27.8751 19.1766 27.4648 19.3906C27.0544 19.6047 26.8939 20.1042 27.108 20.5145C27.8484 21.9327 28.223 23.5025 28.223 25.0901C28.2409 30.6112 23.7717 35.0977 18.2499 35.1155C12.7281 35.1334 8.24109 30.6647 8.22325 25.1436C8.20541 19.6225 12.6746 15.1361 18.1964 15.1182C20.5692 15.1093 22.8707 15.9478 24.6816 17.4819L21.1312 21.0318C18.8833 19.4442 15.7789 19.9704 14.1822 22.2181C12.5854 24.4658 13.1206 27.5697 15.3686 29.1663C17.6166 30.7539 20.7209 30.2277 22.3176 27.98C22.9153 27.1327 23.2365 26.1248 23.2365 25.0901C23.2365 24.6352 22.8618 24.2606 22.4069 24.2606C21.9519 24.2606 21.5773 24.6352 21.5773 25.0901C21.5773 26.9275 20.0875 28.4171 18.2499 28.4171C16.4123 28.4171 14.9226 26.9275 14.9226 25.0901C14.9226 23.2527 16.4123 21.7632 18.2499 21.7632C18.8387 21.7632 19.4185 21.9327 19.927 22.2359L17.6611 24.5015C17.3311 24.8225 17.3222 25.3488 17.6433 25.6788C17.9644 26.0088 18.4908 26.0177 18.8208 25.6966C18.8297 25.6877 18.8386 25.6788 18.8386 25.6788L21.7735 22.7443L32.7279 11.7913H37.4022C37.6252 11.7913 37.8393 11.7021 37.991 11.5416L42.9597 6.52887C43.1916 6.28805 43.263 5.93127 43.1381 5.6191ZM33.2185 6.18102L36.528 2.83624L36.5369 5.6191L33.2096 8.94603V6.18102H33.2185ZM37.0543 10.1234H34.396L37.7234 6.79645L40.3728 6.78753L37.0543 10.1234Z" fill="#E9C515"/>
</svg>
