<svg width="44" height="35" viewBox="0 0 44 35" fill="none" xmlns="http://www.w3.org/2000/svg">
<path d="M19.7958 34.6342C19.0287 34.6342 18.315 34.3398 17.7709 33.7957C17.307 33.3319 17.0127 32.7076 16.9502 32.0564L16.9324 31.8424L16.7272 31.8781C16.5756 31.9048 16.4239 31.9137 16.2812 31.9137C15.514 31.9137 14.8004 31.6194 14.2562 31.0753C13.7121 30.5312 13.4177 29.8177 13.4177 29.0506L13.4266 28.783L13.1857 28.7919C12.4186 28.7919 11.7049 28.4976 11.1608 27.9535C10.6166 27.4094 10.3223 26.6959 10.3223 25.9288C10.3223 25.7861 10.3312 25.6344 10.358 25.4917L10.3936 25.2866L10.1795 25.2688C9.52834 25.2063 8.91283 24.912 8.44004 24.4482C7.34282 23.3511 7.31606 21.6029 8.3776 20.4701L8.49355 20.3452L4.53286 15.0114L0.233178 11.3098C-0.0433574 11.0779 -0.0790525 10.6676 0.152881 10.3911L8.333 0.258663C8.45789 0.0981132 8.6452 0.00891998 8.85037 0.00891998C8.97526 0.00891998 9.10015 0.0445961 9.20719 0.115952L14.0957 3.22884L19.1892 4.62027L24.0688 3.211C24.1401 3.19316 24.2026 3.17532 24.2472 3.17532H30.5272L35.3532 0.107034C35.4602 0.0356788 35.5851 0 35.71 0C35.9152 0 36.1114 0.0981132 36.2363 0.258663L43.6314 9.86489C43.8455 10.1414 43.8098 10.5428 43.5422 10.7747L39.2872 14.4316L36.4147 20.4523L36.4772 20.5504C37.2087 21.6742 37.0481 23.1816 36.1025 24.1271C35.5673 24.6622 34.8447 24.9655 34.0776 24.9655H33.8278V25.1706C33.8367 25.9556 33.5423 26.6869 32.9893 27.24C32.4451 27.784 31.7315 28.0784 30.9643 28.0784H30.7145V28.2835C30.7235 29.0684 30.4291 29.7998 29.876 30.3528C29.3408 30.888 28.6182 31.1913 27.851 31.1913H27.6013V31.3964C27.6102 32.1813 27.3158 32.9127 26.7628 33.4657C26.2275 34.0009 25.505 34.3041 24.7378 34.3041C23.9885 34.3041 23.2838 34.0187 22.7485 33.5014L22.7396 33.4925L22.3917 33.216L21.794 33.8136C21.2856 34.3398 20.563 34.6342 19.7958 34.6342ZM19.8851 29.5412C19.8494 29.5768 19.8137 29.6036 19.778 29.6393L18.7254 30.6918C18.1277 31.2894 18.1277 32.2616 18.7254 32.8503C19.0108 33.1357 19.3944 33.2962 19.8048 33.2962C20.2151 33.2962 20.5987 33.1357 20.8841 32.8503L21.9011 31.8335C22.4631 31.2715 22.5344 30.3885 22.0706 29.782C22.0438 29.7463 22.0081 29.7017 21.9724 29.666C21.687 29.3628 21.2945 29.1933 20.8841 29.1844H20.8752C20.8485 29.1844 20.8128 29.1844 20.786 29.1844H20.7592C20.7503 29.1844 20.7325 29.1844 20.7236 29.1844C20.679 29.1844 20.6344 29.1933 20.5898 29.2022H20.5719C20.3221 29.2468 20.0902 29.3539 19.894 29.5144L19.8851 29.5412ZM18.3686 24.1449C19.1447 24.1538 19.8672 24.4749 20.4114 25.0368C21.0536 25.7147 21.3123 26.7137 21.1071 27.6413L21.0625 27.8554L21.2767 27.8821C21.7048 27.9446 22.1241 28.1051 22.4809 28.346C23.141 28.8008 23.5781 29.5144 23.6852 30.3172C23.7387 30.7274 23.703 31.1645 23.5781 31.5659C23.5514 31.6372 23.5335 31.7175 23.4979 31.7889C23.4889 31.8156 23.4711 31.8424 23.4533 31.8691C23.4354 31.9048 23.4086 31.9405 23.3908 31.9851C23.3284 32.1367 23.364 32.2616 23.4979 32.3597C23.5157 32.3775 23.5335 32.3865 23.5514 32.4043C23.596 32.44 23.6406 32.4667 23.6673 32.5024C23.9528 32.7878 24.3364 32.9484 24.7467 32.9484C25.1571 32.9484 25.5407 32.7878 25.8261 32.5024C26.1116 32.217 26.2721 31.8335 26.2721 31.4232C26.2721 31.0129 26.1116 30.6293 25.8261 30.3439C25.8083 30.3261 25.7904 30.3082 25.7815 30.2904L25.7726 30.2815L23.7655 28.2568C23.5068 27.9981 23.5068 27.57 23.7744 27.3113C23.8993 27.1864 24.0688 27.1151 24.2382 27.1151C24.4167 27.1151 24.5862 27.1864 24.7111 27.3113L26.7628 29.3895C27.0482 29.675 27.4318 29.8355 27.8421 29.8355C28.2525 29.8355 28.6361 29.675 28.9215 29.3895C29.5192 28.7919 29.5192 27.8197 28.9215 27.231C28.9037 27.2132 28.8858 27.1954 28.8769 27.1775L28.868 27.1686L25.1482 23.4135C24.8895 23.1548 24.8895 22.7267 25.1571 22.4681C25.282 22.3432 25.4514 22.2718 25.6298 22.2718C25.8083 22.2718 25.9777 22.3432 26.1026 22.4681L29.8671 26.2766C30.1525 26.5621 30.5361 26.7226 30.9465 26.7226C31.3568 26.7226 31.7404 26.5621 32.0259 26.2766C32.6235 25.679 32.6235 24.7068 32.0259 24.1181L26.397 18.4275C26.2721 18.3027 26.2008 18.1332 26.2008 17.9548C26.2008 17.7764 26.2721 17.607 26.397 17.4821C26.5219 17.3572 26.6914 17.2859 26.8698 17.2859C27.0482 17.2859 27.2177 17.3572 27.3426 17.4821L32.9179 23.1192L32.9268 23.1281C32.9446 23.137 32.9536 23.1548 32.9714 23.1638C33.2569 23.4492 33.6405 23.6097 34.0508 23.6097C34.4611 23.6097 34.8447 23.4492 35.1302 23.1638C35.7279 22.5662 35.7279 21.5939 35.1302 21.0053L24.7735 10.6498L20.7057 10.3644L18.4756 14.2978C18.1009 14.9668 17.4854 15.4395 16.7539 15.6447C16.5042 15.716 16.2455 15.7517 15.9868 15.7517C15.6746 15.7517 15.3623 15.6982 15.0591 15.5912C14.9431 15.5466 14.8271 15.502 14.7112 15.4485L14.7022 15.4395C14.6576 15.4217 14.622 15.3949 14.5774 15.3682C13.9083 14.9936 13.4355 14.3781 13.2303 13.6378C13.0252 12.8975 13.1233 12.1304 13.498 11.4615L16.9591 5.35166L14.0332 4.54891L5.87093 14.5744L9.44806 19.3908L9.60861 19.2392C10.1349 18.7665 10.8129 18.5078 11.5176 18.5078H11.5622C12.2491 18.5167 12.8825 18.7576 13.3909 19.2035C13.8994 19.6495 14.2384 20.265 14.3365 20.9339L14.3633 21.148L14.5774 21.1034C14.7914 21.0588 15.0055 21.032 15.2285 21.032H15.2642C16.0403 21.0409 16.7629 21.362 17.307 21.924C17.8066 22.4591 18.092 23.1905 18.0742 23.9487L18.0653 24.1538H18.315L18.3686 24.1449ZM18.3329 25.4828C17.9226 25.4828 17.53 25.6434 17.2446 25.9288L15.1929 27.9803C14.9074 28.2657 14.7468 28.6492 14.7468 29.0595C14.7468 29.4698 14.9074 29.8533 15.1929 30.1388C15.4783 30.4242 15.8619 30.5847 16.2722 30.5847C16.6826 30.5847 17.0662 30.4242 17.3516 30.1388L19.3676 28.123C19.6085 27.8821 19.7691 27.57 19.8137 27.231C19.9118 26.6067 19.6174 26.0001 19.0822 25.688C18.8681 25.5542 18.6005 25.4828 18.3329 25.4828ZM15.2375 22.361C14.8271 22.361 14.4346 22.5216 14.1491 22.807L12.0974 24.8585C11.812 25.1439 11.6514 25.5274 11.6514 25.9377C11.6514 26.348 11.812 26.7315 12.0974 27.017C12.3829 27.3024 12.7665 27.4629 13.1768 27.4629C13.5872 27.4629 13.9707 27.3024 14.2562 27.017L16.2722 25.0012C16.522 24.7514 16.6826 24.4303 16.7272 24.0825C16.8164 23.4224 16.4774 22.7892 15.8798 22.5037C15.6924 22.4056 15.4605 22.361 15.2375 22.361ZM11.5355 19.8368C11.4909 19.8368 11.4552 19.8368 11.4106 19.8457C11.4017 19.8457 11.3927 19.8457 11.3838 19.8457C11.0805 19.8725 10.7861 19.9884 10.5542 20.1847C10.5096 20.2204 10.4739 20.256 10.4382 20.2917L9.3856 21.3442C8.78793 21.9418 8.78793 22.914 9.3856 23.5027C9.67106 23.7881 10.0546 23.9487 10.465 23.9487C10.8753 23.9487 11.2589 23.7881 11.5444 23.5027L12.5702 22.477C13.1679 21.8794 13.1947 20.9072 12.6327 20.3095C12.3472 20.0063 11.9547 19.8368 11.5444 19.8279H11.5355V19.8368ZM20.3668 9.02647C20.3846 9.02647 20.3935 9.02647 20.4114 9.02647L25.1482 9.3654C25.2909 9.37432 25.4157 9.42784 25.5317 9.51704C25.5496 9.52596 25.5585 9.54379 25.5763 9.55271L35.4424 19.4176L37.9758 14.1105L30.4202 4.50431H24.3542L19.4122 5.93142L19.3855 5.94034L17.985 6.34171L14.6933 12.1483C14.4881 12.505 14.4435 12.9153 14.5506 13.3078C14.6576 13.7002 14.9163 14.0303 15.2731 14.2265C15.5051 14.3603 15.7638 14.4227 16.0224 14.4227C16.1563 14.4227 16.299 14.4049 16.4328 14.3692C16.8253 14.2622 17.1554 14.0035 17.3516 13.6467L19.7869 9.3654C19.9029 9.16026 20.1348 9.02647 20.3668 9.02647ZM1.58909 10.7122L4.94321 13.6021L12.8289 3.9959L8.98418 1.55198L1.58909 10.7122ZM31.7136 4.00483L38.8411 13.067L42.1952 10.1771L35.5584 1.55198L31.7136 4.00483Z" fill="#E9C515"/>
</svg>
