<svg width="46" height="46" viewBox="0 0 46 46" fill="none" xmlns="http://www.w3.org/2000/svg">
<path d="M31.864 13.2725C29.4466 10.8554 26.1103 9.51746 22.4797 9.51746C19.0988 9.60665 15.8963 10.9802 13.47 13.3885C11.0168 15.8146 9.6163 19.0434 9.5271 22.4684C9.5271 26.7051 11.329 30.4424 14.5939 32.9844L14.6029 32.9933C16.2621 34.4472 17.1363 36.2043 17.1363 38.0774V42.0733C17.1363 44.1783 18.519 45.3199 19.8124 45.3199H25.5216C26.9488 45.3199 28.1977 44.0712 28.1977 42.6441V38.2647C28.1977 36.2043 29.2414 34.1083 30.9363 32.7971C34.0406 30.4245 35.8158 26.7319 35.8158 22.6647C35.8069 19.2039 34.3707 15.7789 31.864 13.2725ZM25.5216 43.7769H19.8124C19.072 43.7769 18.6795 43.1882 18.6795 42.0733V39.6115H26.6455V42.6441C26.6545 43.3042 26.1906 43.7769 25.5216 43.7769ZM18.6795 38.0685C18.6795 35.6602 17.5556 33.4215 15.5128 31.7535C12.685 29.6753 11.0703 26.2949 11.0703 22.4773C11.2666 16.2962 16.5743 11.0784 22.667 11.0784C25.7803 11.0784 28.6705 12.2468 30.7847 14.3696C33.0594 16.6441 34.2637 19.5161 34.2637 22.6736C34.2637 26.1967 32.7115 29.4434 30.0086 31.5662C28.0282 33.1896 26.7258 35.7227 26.6545 38.0774H18.6795V38.0685Z" fill="#E9C515"/>
<path d="M22.6671 5.36096C23.1398 5.36096 23.4431 5.05769 23.4431 4.58493V0.776149C23.4431 0.303396 23.1398 0.00012207 22.6671 0.00012207C22.1943 0.00012207 21.891 0.303396 21.891 0.776149V4.58493C21.891 5.05769 22.1943 5.36096 22.6671 5.36096Z" fill="#E9C515"/>
<path d="M37.9836 6.57361C37.7874 6.57361 37.5911 6.65388 37.4395 6.8055L34.7722 9.4723C34.6206 9.62393 34.5403 9.81123 34.5403 10.0164C34.5403 10.2126 34.6206 10.4088 34.7722 10.5604C34.8971 10.6853 35.1736 10.6942 35.4056 10.6942C35.5037 10.6942 35.7267 10.605 35.8605 10.5426L35.8784 10.5337L38.5189 7.89363C38.8311 7.58146 38.8311 7.12659 38.5189 6.81442C38.3761 6.65388 38.1799 6.57361 37.9836 6.57361Z" fill="#E9C515"/>
<path d="M44.5491 21.8883H40.7401C40.2673 21.8883 39.964 22.1916 39.964 22.6643C39.964 23.137 40.2673 23.4403 40.7401 23.4403H44.5491C45.0219 23.4403 45.3252 23.137 45.3252 22.6643C45.3252 22.1916 45.0219 21.8883 44.5491 21.8883Z" fill="#E9C515"/>
<path d="M35.8605 34.9639C35.7089 34.8122 35.5215 34.7319 35.3164 34.7319C35.1112 34.7319 34.9239 34.8122 34.7722 34.9639C34.6206 35.1155 34.5403 35.3028 34.5403 35.508C34.5403 35.7131 34.6206 35.9005 34.7722 36.0521L37.4395 38.7192C37.5644 38.8441 37.8409 38.853 38.0728 38.853C38.1888 38.853 38.3048 38.853 38.385 38.8441L38.4653 38.8352V38.7638L38.5189 38.7103C38.6705 38.5587 38.7508 38.3713 38.7508 38.1662C38.7508 37.961 38.6705 37.7737 38.5189 37.6221L35.8605 34.9639Z" fill="#E9C515"/>
<path d="M9.82138 34.7319C9.62513 34.7319 9.42888 34.8122 9.27723 34.9639L6.6189 37.631C6.46725 37.7826 6.38696 37.9699 6.38696 38.1751C6.38696 38.3713 6.46725 38.5676 6.6189 38.7192C6.74379 38.8441 7.02032 38.853 7.25226 38.853C7.44851 38.853 7.56448 38.8441 7.69828 38.7192L10.3655 36.0521C10.6778 35.7399 10.6778 35.285 10.3655 34.9728C10.2139 34.8211 10.0176 34.7319 9.82138 34.7319Z" fill="#E9C515"/>
<path d="M4.58518 21.8883H0.776091C0.303301 21.8883 0 22.1916 0 22.6643C0 23.137 0.303301 23.4403 0.776091 23.4403H4.58518C5.05797 23.4403 5.36127 23.137 5.36127 22.6643C5.36127 22.1916 5.05797 21.8883 4.58518 21.8883Z" fill="#E9C515"/>
<path d="M9.2863 10.5519C9.41119 10.6678 9.68773 10.6857 9.91966 10.6857C10.0178 10.6857 10.1427 10.5786 10.3657 10.3556C10.6779 10.0435 10.6779 9.58857 10.3657 9.27639L7.69845 6.60947C7.5468 6.45784 7.35947 6.37756 7.15429 6.37756C6.95804 6.37756 6.76179 6.45784 6.61014 6.60947C6.29792 6.92165 6.29792 7.37654 6.61014 7.68872L9.2863 10.5519Z" fill="#E9C515"/>
<path d="M30.2762 23.4402C30.749 23.4402 31.0523 23.1369 31.0523 22.6642C31.0523 20.4077 30.187 18.3029 28.6081 16.7242C27.0292 15.1455 24.9239 14.2804 22.6671 14.2804C22.1943 14.2804 21.891 14.5836 21.891 15.0563C21.891 15.5291 22.1943 15.8323 22.6671 15.8323C26.378 15.8323 29.5091 18.9629 29.5091 22.6732C29.5091 23.1369 29.8124 23.4402 30.2762 23.4402Z" fill="#E9C515"/>
</svg>
