<svg width="29" height="35" viewBox="0 0 29 35" fill="none" xmlns="http://www.w3.org/2000/svg">
<path d="M8.1001 16.6886C8.1001 15.862 7.44208 15.1919 6.63037 15.1919C5.81866 15.1919 5.16064 15.862 5.16064 16.6886V33.0426C5.16064 33.8692 5.81866 34.5393 6.63037 34.5393C7.44208 34.5393 8.1001 33.8692 8.1001 33.0426V16.6886Z" fill="#E9C515"/>
<path d="M15.5616 16.6886C15.5616 15.862 14.9036 15.1919 14.0918 15.1919C13.2801 15.1919 12.6221 15.862 12.6221 16.6886V33.0426C12.6221 33.8692 13.2801 34.5393 14.0918 34.5393C14.9036 34.5393 15.5616 33.8692 15.5616 33.0426V16.6886Z" fill="#E9C515"/>
<path d="M23.0229 16.6886C23.0229 15.862 22.3649 15.1919 21.5532 15.1919C20.7415 15.1919 20.0835 15.862 20.0835 16.6886V33.0426C20.0835 33.8692 20.7415 34.5393 21.5532 34.5393C22.3649 34.5393 23.0229 33.8692 23.0229 33.0426V16.6886Z" fill="#E9C515"/>
<path d="M23.5246 7.59595H4.65964C3.84768 7.59595 3.18945 8.26584 3.18945 9.09219C3.18945 9.91855 3.84768 10.5884 4.65964 10.5884H23.5246C24.3366 10.5884 24.9948 9.91855 24.9948 9.09219C24.9948 8.26584 24.3366 7.59595 23.5246 7.59595Z" fill="#E9C515"/>
<path d="M14.8246 23.3699H6.30835V26.3624H14.8246V23.3699Z" fill="#E9C515"/>
<path d="M26.7124 0H1.47018C0.658221 0 0 0.669892 0 1.49625C0 2.3226 0.658221 2.99249 1.47018 2.99249H26.7124C27.5243 2.99249 28.1826 2.3226 28.1826 1.49625C28.1826 0.669892 27.5243 0 26.7124 0Z" fill="#E9C515"/>
</svg>
