<svg width="34" height="34" viewBox="0 0 34 34" fill="none" xmlns="http://www.w3.org/2000/svg">
<path d="M33.0205 2.85723C32.9867 2.21237 32.7199 1.603 32.2714 1.14636C31.8228 0.689728 31.2243 0.418088 30.5908 0.383707C27.9403 0.237095 22.7566 0.383707 17.7983 2.99215C15.2714 4.32335 12.5979 6.58011 10.4651 9.18315L10.3873 9.27939L5.54564 9.66077C5.15526 9.69086 4.77692 9.81198 4.43987 10.0147C4.10282 10.2175 3.8161 10.4965 3.60189 10.8301L0.295755 15.9111C0.131207 16.163 0.0316913 16.453 0.00640952 16.7544C-0.0188722 17.0557 0.0308966 17.3587 0.151114 17.6353C0.27133 17.9119 0.458114 18.1532 0.694193 18.3368C0.930271 18.5205 1.20802 18.6406 1.50176 18.686L5.5801 19.3291C5.56596 19.41 5.55094 19.4901 5.53769 19.571C5.4717 19.981 5.5026 20.4011 5.62782 20.7966C5.75304 21.192 5.96898 21.5513 6.25776 21.8449L11.9397 27.6293C12.4215 28.12 13.0747 28.3963 13.7562 28.3975C13.896 28.3976 14.0355 28.3855 14.1732 28.3615L14.4109 28.3192L15.0426 32.4711C15.0872 32.7702 15.2052 33.0529 15.3856 33.2933C15.5659 33.5336 15.8029 33.7238 16.0746 33.8462C16.3463 33.9685 16.644 34.0192 16.94 33.9935C17.236 33.9677 17.5209 33.8664 17.7683 33.6989L22.7637 30.3367C23.0912 30.1184 23.365 29.8264 23.5641 29.4834C23.7633 29.1403 23.8824 28.7552 23.9123 28.3579L24.286 23.4288L24.3814 23.3497C26.9383 21.1784 29.1525 18.4566 30.4627 15.8841C33.0249 10.8364 33.1672 5.55742 33.0249 2.86083L33.0205 2.85723ZM21.6991 28.6916L16.921 31.9081L16.3025 27.8605C18.4072 27.2147 20.4032 26.2469 22.2221 24.9903L21.9783 28.2032C21.9711 28.3013 21.9418 28.3965 21.8928 28.4813C21.8438 28.5662 21.7763 28.6384 21.6955 28.6925L21.6991 28.6916ZM13.3056 26.2343L7.62368 20.4507C7.55311 20.3791 7.50027 20.2914 7.46955 20.1949C7.43882 20.0984 7.43109 19.9959 7.44698 19.8958C7.61259 18.8985 7.8657 17.9183 8.20327 16.9671L16.7275 25.6451C15.7935 25.9887 14.8314 26.2469 13.8525 26.4169C13.7541 26.433 13.6534 26.4252 13.5586 26.3939C13.4638 26.3626 13.3777 26.3088 13.3074 26.237L13.3056 26.2343ZM5.69496 11.6252L8.84913 11.3769C7.61482 13.2287 6.66418 15.2607 6.02981 17.4033L2.05396 16.7737L5.21344 11.9094C5.2669 11.8276 5.33814 11.7594 5.42164 11.7101C5.50513 11.6609 5.59865 11.6318 5.69496 11.6252ZM23.1383 21.8314C21.7678 23.0074 20.2622 24.0099 18.6544 24.8167L9.02406 15.0126C9.82051 13.3787 10.8049 11.8469 11.9565 10.4496C13.9311 8.03993 16.3864 5.96128 18.6933 4.747C23.2435 2.35083 28.0374 2.22131 30.4901 2.35713C30.6467 2.36576 30.7946 2.43298 30.9055 2.54586C31.0164 2.65875 31.0824 2.80935 31.0909 2.96876C31.2243 5.46567 31.0971 10.3444 28.7434 14.9784C27.5506 17.3269 25.5088 19.8265 23.1427 21.8359L23.1383 21.8314Z" fill="#E9C515"/>
<path d="M22.6463 15.8733C23.7656 15.8717 24.8497 15.4751 25.7139 14.7511C26.5781 14.027 27.169 13.0203 27.3859 11.9025C27.6028 10.7846 27.4323 9.6248 26.9035 8.62059C26.3746 7.61637 25.5201 6.82988 24.4856 6.39511C23.451 5.96034 22.3003 5.90418 21.2297 6.23621C20.159 6.56823 19.2345 7.2679 18.6137 8.21601C17.9929 9.16411 17.7142 10.302 17.8251 11.4358C17.936 12.5697 18.4296 13.6293 19.2218 14.4342C19.6715 14.8916 20.2055 15.2542 20.7932 15.5012C21.3808 15.7481 22.0106 15.8746 22.6463 15.8733ZM20.5912 8.85755C21.0666 8.37353 21.692 8.07226 22.3611 8.00508C23.0301 7.93789 23.7013 8.10895 24.2604 8.4891C24.8194 8.86926 25.2317 9.43498 25.427 10.0899C25.6222 10.7448 25.5884 11.4484 25.3312 12.0808C25.0741 12.7131 24.6095 13.2351 24.0166 13.5579C23.4238 13.8806 22.7393 13.9841 22.0799 13.8507C21.4205 13.7173 20.827 13.3553 20.4004 12.8263C19.9738 12.2973 19.7405 11.6341 19.7404 10.9497C19.7393 10.5605 19.8139 10.1749 19.9599 9.8152C20.106 9.45549 20.3205 9.12879 20.5912 8.85396V8.85755Z" fill="#E9C515"/>
<path d="M0.989223 28.079C1.11641 28.0792 1.24238 28.0538 1.35988 28.0042C1.47739 27.9547 1.58412 27.882 1.67396 27.7903L4.83611 24.5711C4.993 24.3816 5.0743 24.139 5.06394 23.8914C5.05358 23.6438 4.95231 23.4091 4.78016 23.2339C4.60801 23.0586 4.37753 22.9555 4.1343 22.945C3.89106 22.9344 3.6528 23.0172 3.46664 23.1769L0.304488 26.3952C0.170461 26.5337 0.079477 26.7093 0.0428987 26.9001C0.00632026 27.0909 0.0257683 27.2885 0.0988139 27.4681C0.17186 27.6477 0.295266 27.8015 0.453622 27.9101C0.611978 28.0188 0.798266 28.0775 0.989223 28.079Z" fill="#E9C515"/>
<path d="M7.73402 26.1263C7.55193 25.9421 7.30561 25.8386 7.04885 25.8386C6.7921 25.8386 6.54578 25.9421 6.36369 26.1263L0.285101 32.3156C0.128219 32.5051 0.0469172 32.7476 0.0572777 32.9953C0.0676382 33.2429 0.168907 33.4775 0.341051 33.6528C0.513194 33.828 0.743676 33.9311 0.986904 33.9417C1.23013 33.9522 1.46839 33.8694 1.65455 33.7097L7.73314 27.5214C7.91415 27.336 8.01575 27.0853 8.01575 26.8239C8.01575 26.5625 7.91415 26.3117 7.73314 26.1263H7.73402Z" fill="#E9C515"/>
<path d="M9.26161 29.0766L6.09955 32.2957C5.94267 32.4853 5.86137 32.7278 5.87173 32.9754C5.88209 33.2231 5.98336 33.4577 6.1555 33.6329C6.32764 33.8082 6.55812 33.9113 6.80134 33.9218C7.04457 33.9324 7.28282 33.8496 7.46898 33.6899L10.631 30.4707C10.7879 30.2812 10.8692 30.0387 10.8589 29.791C10.8485 29.5434 10.7472 29.3088 10.5751 29.1335C10.403 28.9583 10.1725 28.8552 9.92925 28.8446C9.68602 28.8341 9.44777 28.9169 9.26161 29.0766Z" fill="#E9C515"/>
</svg>
