<svg width="179" height="104" viewBox="0 0 179 104" fill="none" xmlns="http://www.w3.org/2000/svg">
<path d="M30.1271 78.7471C28.8847 78.7471 27.8794 77.7068 27.8794 76.4245V51.0314C27.8794 49.7475 28.8862 48.7087 30.1271 48.7087C31.3695 48.7087 32.3748 49.7491 32.3748 51.0314V76.423C32.3763 77.7068 31.3695 78.7471 30.1271 78.7471Z" fill="white"/>
<path d="M41.5402 78.7471C40.2978 78.7471 39.2925 77.7068 39.2925 76.4245V51.0314C39.2925 49.7475 40.2993 48.7087 41.5402 48.7087C42.7826 48.7087 43.7879 49.7491 43.7879 51.0314V76.423C43.7894 77.7068 42.7826 78.7471 41.5402 78.7471Z" fill="white"/>
<path d="M52.9534 78.7471C51.711 78.7471 50.7057 77.7068 50.7057 76.4245V51.0314C50.7057 49.7475 51.7125 48.7087 52.9534 48.7087C54.1958 48.7087 55.2011 49.7491 55.2011 51.0314V76.423C55.2011 77.7068 54.1944 78.7471 52.9534 78.7471Z" fill="white"/>
<path d="M58.217 39.2379C58.217 40.5217 57.2102 41.5605 55.9692 41.5605H27.1114C25.8689 41.5605 24.8636 40.5202 24.8636 39.2379C24.8636 37.9541 25.8704 36.9153 27.1114 36.9153H55.9692C57.2102 36.9153 58.217 37.9556 58.217 39.2379Z" fill="white"/>
<path d="M42.6619 61.4038H29.635V66.0506H42.6619V61.4038Z" fill="white"/>
<path d="M63.0957 27.4444C63.0957 28.7283 62.0889 29.7671 60.8479 29.7671H22.234C20.9916 29.7671 19.9863 28.7267 19.9863 27.4444C19.9863 26.1606 20.9931 25.1218 22.234 25.1218H60.8464C62.0889 25.1218 63.0957 26.1622 63.0957 27.4444Z" fill="white"/>
<path d="M69.9939 61.413C68.926 61.0277 67.9162 60.6624 67.0616 60.1939C66.031 59.6283 65.0764 58.796 65.0764 56.5659C65.0764 53.8733 66.5411 52.5078 69.4286 52.5078C70.9112 52.5078 71.821 52.8808 72.6235 53.2091C73.2096 53.4495 73.7153 53.656 74.3029 53.656C75.4902 53.656 76.3851 52.7529 76.3851 51.5569C76.3851 48.2648 69.4883 48.2263 69.1945 48.2263C66.6768 48.2263 64.5618 49.02 63.0778 50.5197C61.5848 52.0301 60.7957 54.1908 60.7957 56.7693C60.7957 62.6783 64.79 64.1148 68.313 65.3816C69.3854 65.7669 70.3966 66.1307 71.2483 66.6023L71.2513 66.6038C72.2133 67.1309 73.1962 67.9786 73.1962 70.2735C73.1962 73.265 71.6137 74.7831 68.4935 74.7831C66.6917 74.7831 65.4165 74.2591 64.3903 73.8383C63.7206 73.564 63.1926 73.3467 62.6825 73.3467C61.6384 73.3467 60.757 74.3269 60.757 75.4874C60.757 78.4065 66.4575 79.0646 68.4532 79.0646C71.0589 79.0646 73.2947 78.2416 74.9204 76.6834C76.6178 75.0574 77.5142 72.741 77.5142 69.9868C77.5157 64.1302 73.5199 62.686 69.9939 61.413Z" fill="#E9C515"/>
<path d="M94.7352 48.6379H81.0103C79.8573 48.6379 78.9281 49.8093 78.9281 50.7787C78.9281 51.9593 79.8618 52.9194 81.0103 52.9194H85.7906V76.8839C85.7906 78.066 86.7437 79.0647 87.8727 79.0647C89.0018 79.0647 89.9549 78.066 89.9549 76.8839V52.9179H94.7352C95.8852 52.9179 96.8561 51.9377 96.8561 50.7772C96.8561 49.6166 95.8852 48.6379 94.7352 48.6379Z" fill="#E9C515"/>
<path d="M107.291 48.2263C104.096 48.2263 101.636 49.3375 99.9824 51.5276C98.555 53.4171 97.8003 56.0819 97.8003 59.2322V68.0156C97.8003 74.7261 101.526 79.0631 107.291 79.0631C113.056 79.0631 116.781 74.7261 116.781 68.0156V59.2322C116.781 56.0819 116.027 53.4171 114.599 51.5276C112.945 49.3375 110.486 48.2263 107.291 48.2263ZM112.617 59.2337V68.0171C112.617 70.5447 111.925 74.7846 107.291 74.7846C102.657 74.7846 101.965 70.5447 101.965 68.0171V59.2337C101.965 54.7087 103.707 52.5078 107.291 52.5078C110.875 52.5078 112.617 54.7071 112.617 59.2337Z" fill="#E9C515"/>
<path d="M132.747 65.5373C136.414 64.4846 138.501 61.5517 138.501 57.3857C138.501 55.7043 138.159 53.3015 136.532 51.3996C134.964 49.5656 132.59 48.6362 129.479 48.6362H122.694C121.438 48.6362 120.377 49.786 120.377 51.1453V76.7989C120.377 78.0258 121.313 79.063 122.421 79.063C123.55 79.063 124.542 78.0057 124.542 76.7989V65.9272H128.203L134.953 77.9687C135.322 78.6361 135.956 79.0198 136.692 79.0198C137.557 79.0198 138.89 78.1182 138.89 76.9207C138.89 76.5138 138.795 76.0607 138.641 75.7386L132.747 65.5373ZM134.337 57.3857C134.337 60.2416 132.729 61.6904 129.556 61.6904H124.542V52.9177H129.322C132.696 52.9177 134.337 54.3788 134.337 57.3857Z" fill="#E9C515"/>
<path d="M156.15 48.2263C155.422 48.2263 154.782 48.587 154.481 49.168L149.053 61.6134L143.641 49.2004L143.624 49.168C143.323 48.587 142.685 48.2263 141.955 48.2263C140.826 48.2263 139.834 49.2651 139.834 50.4488C139.834 50.774 139.931 51.1747 140.027 51.4259L146.931 66.8628V76.8005C146.931 78.0489 147.882 79.0646 149.052 79.0646C150.202 79.0646 151.173 78.0274 151.173 76.8005V66.9444L158.067 51.4536L158.078 51.4259C158.174 51.1747 158.271 50.774 158.271 50.4488C158.271 49.2651 157.279 48.2263 156.15 48.2263Z" fill="#E9C515"/>
<path d="M71.2021 36.695C71.2021 38.791 72.0046 40.1072 74.4104 40.1072C75.2665 40.1072 75.9615 39.9115 76.6297 39.5215L76.8967 39.3751C77.2443 39.1794 77.4322 39.0099 78.0467 39.0099C79.0624 39.0099 79.8111 39.6926 79.8111 40.4725C79.8111 41.8858 77.11 43.0802 74.2761 43.0802C69.5972 43.0802 67.4569 40.5449 67.4569 36.6934V31.8663C67.4569 28.0148 69.5957 25.4795 74.2761 25.4795C77.11 25.4795 79.8111 26.6739 79.8111 28.0872C79.8111 28.8671 79.0624 29.5499 78.0467 29.5499C77.4322 29.5499 77.2443 29.3788 76.8967 29.1846L76.6297 29.0382C75.9615 28.6482 75.2665 28.4525 74.4104 28.4525C72.0031 28.4525 71.2021 29.7687 71.2021 31.8648V36.695Z" fill="#E9C515"/>
<path d="M83.1804 36.6949V31.8678C83.1804 28.4062 85.1328 25.481 90.1324 25.481C95.1334 25.481 97.0843 28.4062 97.0843 31.8678V36.6949C97.0843 40.2536 94.7576 43.1064 90.1324 43.1064C85.5072 43.1064 83.1804 40.2536 83.1804 36.6949ZM86.9241 31.8678V36.6949C86.9241 38.6445 87.9398 40.01 90.1324 40.01C92.3249 40.01 93.3406 38.6445 93.3406 36.6949V31.8678C93.3406 29.8935 92.4845 28.5773 90.1324 28.5773C87.7803 28.5773 86.9241 29.8935 86.9241 31.8678Z" fill="#E9C515"/>
<path d="M105.32 41.5452C105.32 42.3743 104.464 43.1049 103.449 43.1049C102.406 43.1049 101.577 42.3743 101.577 41.5452V27.4075C101.577 26.5537 102.46 25.6768 103.635 25.6768H110.881C111.897 25.6768 112.753 26.4073 112.753 27.2611C112.753 28.1381 111.897 28.7731 110.881 28.7731H105.319V32.7217H110.372C111.307 32.7217 112.217 33.3798 112.217 34.2567C112.217 35.1337 111.415 35.8164 110.372 35.8164H105.319V41.5452H105.32Z" fill="#E9C515"/>
<path d="M120.67 41.5452C120.67 42.3743 119.814 43.1049 118.798 43.1049C117.755 43.1049 116.926 42.3743 116.926 41.5452V27.4075C116.926 26.5537 117.809 25.6768 118.984 25.6768H126.23C127.246 25.6768 128.102 26.4073 128.102 27.2611C128.102 28.1381 127.246 28.7731 126.23 28.7731H120.668V32.7217H125.721C126.657 32.7217 127.567 33.3798 127.567 34.2567C127.567 35.1337 126.764 35.8164 125.721 35.8164H120.668V41.5452H120.67Z" fill="#E9C515"/>
<path d="M141.848 42.886H134.762C133.452 42.886 132.275 42.4714 132.275 41.1552V27.4322C132.275 26.5784 133.158 25.7014 134.334 25.7014H141.579C142.595 25.7014 143.451 26.432 143.451 27.2858C143.451 28.1627 142.595 28.7977 141.579 28.7977H136.017V32.7217H141.071C142.006 32.7217 142.916 33.3798 142.916 34.2567C142.916 35.1337 142.113 35.8164 141.071 35.8164H136.017V39.7897H141.846C142.835 39.7897 143.718 40.4725 143.718 41.3017C143.718 42.1786 142.864 42.886 141.848 42.886Z" fill="#E9C515"/>
<path d="M157.195 42.886H150.109C148.8 42.886 147.623 42.4714 147.623 41.1552V27.4322C147.623 26.5784 148.506 25.7014 149.681 25.7014H156.927C157.943 25.7014 158.799 26.432 158.799 27.2858C158.799 28.1627 157.943 28.7977 156.927 28.7977H151.365V32.7217H156.418C157.354 32.7217 158.263 33.3798 158.263 34.2567C158.263 35.1337 157.461 35.8164 156.418 35.8164H151.365V39.7897H157.194C158.183 39.7897 159.066 40.4725 159.066 41.3017C159.067 42.1786 158.211 42.886 157.195 42.886Z" fill="#E9C515"/>
</svg>
