<svg width="32" height="41" viewBox="0 0 32 41" fill="none" xmlns="http://www.w3.org/2000/svg">
<path d="M12.9705 16.528C11.7662 16.528 10.6155 16.9026 9.65205 17.6161C9.13466 17.9997 8.69754 18.4278 8.36749 18.9005C5.8876 22.1472 5.8876 26.6872 8.36749 29.9339C9.39334 31.3789 11.0972 32.2619 12.9348 32.3154C14.7635 32.2619 16.4673 31.3967 17.6002 29.9339C20.0801 26.6872 20.0801 22.1472 17.6002 18.9005C16.5297 17.4199 14.7991 16.528 12.9705 16.528ZM12.5869 30.7813L12.5512 30.8437L12.4888 30.8348C11.3023 30.6921 10.1784 30.0231 9.4112 28.9974C7.34165 26.2948 7.34165 22.5129 9.4112 19.8014C9.97319 19.0878 10.669 18.5527 11.4896 18.2227L11.7127 18.1335L11.6235 18.3564C10.7582 20.5239 11.0436 22.9321 12.3906 24.8052C14.3174 27.4811 12.8902 30.2461 12.5869 30.7813ZM14.3799 30.6742L14.1569 30.7634L14.2461 30.5405C15.1114 28.373 14.8259 25.9648 13.4789 24.0917C11.6324 21.3445 12.9883 18.5973 13.2827 18.071L13.3183 18.0086L13.3897 18.0175C14.5761 18.1602 15.7001 18.8292 16.4673 19.8549C18.5279 22.6021 18.5279 26.4018 16.4673 29.0955C15.8964 29.8091 15.2006 30.3353 14.3799 30.6742Z" fill="#E9C515"/>
<path d="M31.3377 8.54503L30.0175 6.6006L29.9729 6.55601L28.8489 4.84348V4.83456C28.7954 4.72753 28.7418 4.56698 28.7418 4.45103V2.85445C28.7418 1.30248 27.4841 0.0448412 25.8873 0.000244141H5.46825C3.91608 0.000244141 2.65829 1.25788 2.65829 2.80986V4.36183C2.65829 4.5313 2.60477 4.64725 2.55125 4.74537V4.75429L0.0802758 8.33989V8.34881C0.0445938 8.42908 0 8.55395 0 8.63423V37.2923C0 38.8175 1.25779 40.1019 2.80996 40.1465H28.6526C30.2048 40.1465 31.4626 38.8888 31.5072 37.2923V8.95533C31.5072 8.77694 31.4626 8.66098 31.3377 8.54503ZM28.7418 38.8799H26.0746L26.03 9.6778H30.1156L30.1602 37.4617C30.1602 38.2466 29.5269 38.8799 28.7418 38.8799ZM1.34698 37.4617L1.30238 9.62428H24.6384L24.683 38.871H2.75643C1.97142 38.8799 1.34698 38.2466 1.34698 37.4617ZM27.3413 2.80094V4.11209H4.05883V2.80094C4.05883 2.02495 4.69217 1.39167 5.46825 1.39167H25.9319C26.708 1.39167 27.3413 2.01603 27.3413 2.80094ZM29.4198 8.23285H26.6098L27.2521 7.30524L28.0193 6.10112L28.7775 7.29632L28.8221 7.34091L29.4198 8.23285ZM26.699 5.51244L26.0657 6.49357L24.9239 8.23285H1.94465L2.52448 7.25172L3.66631 5.51244H26.699Z" fill="#E9C515"/>
</svg>
