<svg width="41" height="41" viewBox="0 0 41 41" fill="none" xmlns="http://www.w3.org/2000/svg">
<path d="M39.4554 16.6439C39.0361 16.2604 38.5009 16.0552 37.93 16.0552C37.8675 16.0552 37.7962 16.0552 37.7337 16.0641C36.806 16.1444 36.0121 16.8223 35.7623 17.7499L35.7444 17.8302H34.674C34.3974 17.8302 34.1566 17.625 34.1031 17.3485C33.7373 15.4754 33.0148 13.7183 31.9443 12.1307C31.7837 11.8988 31.8105 11.5777 32.0067 11.3904L32.765 10.6322L32.8364 10.6768C33.1842 10.8819 33.5768 10.989 33.9782 10.989C34.5759 10.989 35.1468 10.7571 35.5749 10.3289C36.0031 9.90081 36.2351 9.33888 36.2351 8.73236C36.2351 8.12584 36.0031 7.56392 35.5749 7.13578L33.0683 4.62943C32.6401 4.20129 32.0781 3.96939 31.4715 3.96939C30.8649 3.96939 30.3029 4.20129 29.8748 4.62943C29.1522 5.3519 29.0005 6.48467 29.5269 7.36769L29.5715 7.43905L28.8132 8.1972C28.7062 8.30423 28.5634 8.36667 28.4029 8.36667C28.2869 8.36667 28.1709 8.33099 28.0639 8.25963C26.476 7.1893 24.7187 6.46683 22.8454 6.10113C22.5689 6.04762 22.3637 5.80679 22.3637 5.53029V4.45996L22.444 4.44212C23.4431 4.18345 24.1389 3.29151 24.1389 2.25686C24.1389 1.01706 23.1308 0.000244141 21.882 0.000244141H18.3316C17.0917 0.000244141 16.0747 1.00814 16.0747 2.25686C16.0747 3.28259 16.7705 4.18345 17.7696 4.44212L17.8499 4.45996V5.53029C17.8499 5.80679 17.6447 6.04762 17.3682 6.10113C15.4949 6.46683 13.7376 7.1893 12.1497 8.25963C12.0516 8.33099 11.9356 8.36667 11.8107 8.36667C11.6591 8.36667 11.5074 8.30423 11.4004 8.1972L10.6421 7.43905L10.6867 7.36769C10.8919 7.01983 10.999 6.62738 10.999 6.226C10.999 5.61948 10.767 5.05756 10.3389 4.62943C9.91067 4.20129 9.34869 3.96939 8.74209 3.96939C8.1355 3.96939 7.57349 4.20129 7.14531 4.62943L4.63866 7.13578C4.21048 7.56392 3.97853 8.12584 3.97853 8.73236C3.97853 9.33888 4.21048 9.90081 4.63866 10.3289C5.06684 10.7571 5.62883 10.989 6.23542 10.989C6.63684 10.989 7.03827 10.8819 7.37725 10.6768L7.44862 10.6322L8.20686 11.3904C8.40311 11.5866 8.42987 11.8988 8.2693 12.1307C7.19884 13.7183 6.47628 15.4754 6.11054 17.3485C6.05702 17.625 5.81615 17.8302 5.53962 17.8302H4.46025L4.43348 17.7499C4.16587 16.7866 3.3095 16.0909 2.33717 16.0552C2.31041 16.0552 2.28363 16.0552 2.25687 16.0552C1.66812 16.0552 1.11506 16.2782 0.686874 16.6885C0.240849 17.1166 0 17.6964 0 18.3118V21.8172C0 23.057 0.954485 24.0649 2.17659 24.1095C2.20336 24.1095 2.23011 24.1095 2.25687 24.1095C2.84562 24.1095 3.3987 23.8865 3.82689 23.4762C4.13018 23.1818 4.34427 22.8161 4.44239 22.4148L4.46025 22.3345H5.53071C5.80725 22.3345 6.04809 22.5396 6.10161 22.8161C6.46735 24.6892 7.18991 26.4463 8.26037 28.034C8.42094 28.2659 8.39418 28.587 8.19793 28.7743L7.43969 29.5325L7.36832 29.4879C7.02042 29.2827 6.62791 29.1757 6.22649 29.1757C5.6199 29.1757 5.05792 29.4076 4.62973 29.8357C4.20155 30.2639 3.96962 30.8258 3.96962 31.4323C3.96962 32.0388 4.20155 32.6008 4.62973 33.0289L7.1364 35.5352C7.55566 35.9545 8.13549 36.1953 8.73316 36.1953C8.76884 36.1953 8.79561 36.1953 8.8313 36.1953C9.46465 36.1685 10.0534 35.8742 10.4637 35.3836C11.0614 34.6701 11.1417 33.6265 10.6689 32.797L10.6243 32.7256L11.3825 31.9675C11.4896 31.8604 11.6323 31.798 11.7929 31.798C11.9089 31.798 12.0248 31.8337 12.1319 31.905C13.7197 32.9754 15.4771 33.6978 17.3504 34.0635C17.6269 34.1171 17.8321 34.3579 17.8321 34.6344V35.7047L17.7518 35.7225C16.7527 35.9812 16.0569 36.8732 16.0569 37.9078C16.0569 39.1476 17.0649 40.1644 18.3138 40.1644H21.8641C23.1041 40.1644 24.121 39.1565 24.121 37.9078C24.121 36.8821 23.4252 35.9812 22.4261 35.7225L22.3459 35.7047V34.6344C22.3459 34.3579 22.551 34.1171 22.8276 34.0635C24.7009 33.6978 26.4582 32.9754 28.046 31.905C28.1442 31.8337 28.2601 31.798 28.385 31.798C28.5367 31.798 28.6883 31.8604 28.7954 31.9675L29.5536 32.7256L29.509 32.797C29.0362 33.6265 29.1165 34.6701 29.7142 35.3836C30.1245 35.8653 30.7133 36.1596 31.3466 36.1953C31.3823 36.1953 31.4091 36.1953 31.4448 36.1953C32.0424 36.1953 32.6223 35.9545 33.0415 35.5352L35.5482 33.0289C35.9764 32.6008 36.2083 32.0388 36.2083 31.4323C36.2083 30.8258 35.9764 30.2639 35.5482 29.8357C35.12 29.4076 34.558 29.1757 33.9514 29.1757C33.55 29.1757 33.1486 29.2827 32.8096 29.4879L32.7382 29.5325L31.98 28.7743C31.7837 28.5781 31.757 28.2659 31.9175 28.034C32.988 26.4463 33.7106 24.6892 34.0763 22.8161C34.1298 22.5396 34.3707 22.3345 34.6472 22.3345H35.7177L35.7355 22.4148C35.9853 23.3424 36.7792 24.0113 37.707 24.1005C37.7783 24.1095 37.8408 24.1095 37.9032 24.1095C38.4741 24.1095 39.0093 23.8954 39.4286 23.5208C39.8925 23.0926 40.1601 22.4861 40.1601 21.8618V18.3118C40.1869 17.6696 39.9192 17.0631 39.4554 16.6439ZM36.1905 20.9787H34.6561C33.7284 20.9787 32.9345 21.6388 32.7561 22.5486C32.426 24.2432 31.7659 25.8309 30.8025 27.2669C30.2851 28.0429 30.3832 29.0776 31.0344 29.7287L32.1227 30.8169C32.2833 30.9774 32.4885 31.0577 32.7115 31.0577C32.9345 31.0577 33.1486 30.9685 33.3002 30.8169L33.327 30.7901C33.4965 30.6206 33.7195 30.5314 33.9603 30.5314C34.2012 30.5314 34.4242 30.6206 34.5937 30.7901C34.7632 30.9596 34.8613 31.1826 34.8613 31.4234C34.8613 31.6642 34.7721 31.8872 34.5937 32.0567L32.087 34.563C31.9175 34.7325 31.6945 34.8306 31.4537 34.8306C31.4448 34.8306 31.4269 34.8306 31.418 34.8306C31.1593 34.8217 30.9274 34.7057 30.7668 34.5095C30.4724 34.1617 30.5081 33.6176 30.8471 33.2786C31.0076 33.1181 31.0969 32.9129 31.0969 32.6899C31.0969 32.467 31.0076 32.2529 30.8471 32.1013L29.7588 31.0131C29.393 30.6474 28.9113 30.4512 28.3939 30.4512C28.0014 30.4512 27.6268 30.5671 27.3056 30.7812C25.8694 31.7445 24.2816 32.4045 22.5867 32.7345C21.6768 32.9129 21.0167 33.7068 21.0167 34.6344V36.115C21.0167 36.5967 21.4092 36.9891 21.8909 36.9891C22.3904 36.9891 22.7919 37.3905 22.7919 37.89C22.7919 38.3895 22.3904 38.7908 21.8909 38.7908H18.3405C17.841 38.7908 17.4396 38.3895 17.4396 37.89C17.4396 37.3905 17.841 36.9891 18.3405 36.9891C18.8222 36.9891 19.2148 36.5967 19.2148 36.115V34.6165C19.2148 33.6889 18.5546 32.8951 17.6447 32.7167C15.9498 32.3867 14.362 31.7266 12.9258 30.7633C12.6047 30.5493 12.2211 30.4333 11.8375 30.4333C11.3201 30.4333 10.8295 30.6296 10.4727 30.9953L9.38436 32.0834C9.22379 32.244 9.14351 32.4491 9.14351 32.6721C9.14351 32.8951 9.2327 33.1092 9.39327 33.2608C9.73225 33.5997 9.76794 34.1438 9.47357 34.4917C9.30408 34.6879 9.07214 34.8039 8.82237 34.8128C8.80453 34.8128 8.79561 34.8128 8.77776 34.8128C8.53691 34.8128 8.31389 34.7236 8.1444 34.5452L5.63775 32.0388C5.46826 31.8694 5.37014 31.6464 5.37014 31.4056C5.37014 31.1647 5.45934 30.9417 5.63775 30.7723C5.80724 30.6028 6.03024 30.5047 6.27109 30.5047C6.51195 30.5047 6.73497 30.5939 6.90446 30.7723L6.93122 30.799C7.09179 30.9596 7.29695 31.0398 7.51997 31.0398C7.74298 31.0398 7.95708 30.9507 8.10873 30.799L9.19702 29.7109C9.84822 29.0597 9.94635 28.0251 9.42897 27.2491C8.46555 25.8131 7.80542 24.2254 7.47536 22.5307C7.29695 21.6209 6.49412 20.9609 5.57531 20.9609H4.07666C3.59496 20.9609 3.20245 21.3534 3.20245 21.835C3.20245 22.0847 3.10432 22.3077 2.92591 22.4861C2.75642 22.6467 2.5334 22.7359 2.30147 22.7359C2.29255 22.7359 2.27472 22.7359 2.2658 22.7359C1.78409 22.718 1.40051 22.2988 1.40051 21.7993V18.294C1.40051 18.0442 1.49863 17.8213 1.67704 17.6518C1.84653 17.4912 2.06954 17.402 2.30147 17.402C2.31039 17.402 2.32825 17.402 2.33717 17.402C2.81887 17.4199 3.20245 17.8391 3.20245 18.3386C3.20245 18.8024 3.57712 19.1681 4.03206 19.1681H5.57531C6.50305 19.1681 7.29695 18.5081 7.47536 17.5983C7.80542 15.9036 8.46555 14.3159 9.42897 12.8799C9.94635 12.1039 9.84822 11.0693 9.19702 10.4181L8.13549 9.35672C7.97492 9.19617 7.7519 9.09806 7.51997 9.09806C7.28803 9.09806 7.06503 9.18725 6.90446 9.35672C6.73497 9.52619 6.51195 9.62431 6.27109 9.62431C6.03024 9.62431 5.80724 9.53511 5.63775 9.35672C5.28985 9.00887 5.28985 8.43802 5.63775 8.08125L8.1444 5.57489C8.31389 5.40542 8.53691 5.31622 8.77776 5.31622C9.01862 5.31622 9.24164 5.40542 9.41113 5.57489C9.58062 5.74436 9.66982 5.96734 9.67874 6.20817C9.67874 6.44899 9.58953 6.67197 9.42004 6.84144C9.25055 7.01091 9.16135 7.22498 9.16135 7.45689C9.16135 7.68879 9.25055 7.91177 9.42004 8.07232L10.4816 9.13374C10.8473 9.49943 11.329 9.69566 11.8464 9.69566C12.2389 9.69566 12.6136 9.57971 12.9347 9.36564C14.3709 8.40234 15.9588 7.74231 17.6537 7.41229C18.5636 7.2339 19.2237 6.44007 19.2237 5.51245V4.01399C19.2237 3.53234 18.8312 3.13988 18.3495 3.13988C17.8499 3.13988 17.4485 2.73851 17.4485 2.23902C17.4485 1.73953 17.8499 1.33816 18.3495 1.33816H21.8998C22.3994 1.33816 22.8008 1.73953 22.8008 2.23902C22.8008 2.73851 22.3994 3.13988 21.8998 3.13988C21.4181 3.13988 21.0256 3.53234 21.0256 4.01399V5.51245C21.0256 6.44007 21.6857 7.2339 22.5956 7.41229C24.2905 7.74231 25.8784 8.40234 27.3146 9.36564C27.6357 9.57971 28.0193 9.69566 28.4029 9.69566C28.9203 9.69566 29.4109 9.49943 29.7677 9.13374L30.8292 8.07232C30.9898 7.91177 31.0879 7.68879 31.0879 7.45689C31.0879 7.22498 30.9987 7.00199 30.8292 6.84144C30.6597 6.67197 30.5706 6.44899 30.5706 6.20817C30.5706 5.96734 30.6597 5.74436 30.8292 5.57489C30.9987 5.40542 31.2218 5.31622 31.4626 5.31622C31.7035 5.31622 31.9265 5.40542 32.0959 5.57489L34.6026 8.08125C34.7721 8.25072 34.8702 8.4737 34.8702 8.71452C34.8702 8.95535 34.781 9.17834 34.6026 9.34781C34.4331 9.51727 34.2101 9.60647 33.9692 9.60647C33.7284 9.60647 33.5054 9.51727 33.3359 9.34781C33.1664 9.18726 32.9523 9.08914 32.7204 9.08914C32.4884 9.08914 32.2654 9.17834 32.1049 9.34781L31.0344 10.4271C30.3832 11.0782 30.2851 12.1128 30.8025 12.8888C31.7659 14.3248 32.426 15.9125 32.7561 17.6072C32.9345 18.517 33.7284 19.177 34.6561 19.177H36.1905C36.6543 19.177 37.029 18.8024 37.029 18.3386C37.029 17.8569 37.3858 17.4466 37.8408 17.411C37.8675 17.411 37.8943 17.411 37.921 17.411C38.1441 17.411 38.3581 17.4912 38.5276 17.6429C38.715 17.8123 38.822 18.0532 38.822 18.3029V21.8528C38.822 22.1115 38.715 22.3434 38.5276 22.5129C38.3581 22.6645 38.1441 22.7448 37.921 22.7448C37.8943 22.7448 37.8675 22.7448 37.8408 22.7448C37.3858 22.7002 37.029 22.2988 37.029 21.8172C37.029 21.3534 36.6543 20.9787 36.1905 20.9787Z" fill="#E9C515"/>
<path d="M17.0649 10.2484C15.2986 10.2484 13.8624 11.6844 13.8624 13.4505C13.8624 15.2166 15.2986 16.6526 17.0649 16.6526C18.8312 16.6526 20.2674 15.2166 20.2674 13.4505C20.2674 11.6844 18.8312 10.2484 17.0649 10.2484ZM17.0649 15.2879C16.048 15.2879 15.2183 14.4584 15.2183 13.4416C15.2183 12.4248 16.048 11.5953 17.0649 11.5953C18.0818 11.5953 18.9115 12.4248 18.9115 13.4416C18.9115 14.4584 18.0818 15.2879 17.0649 15.2879Z" fill="#E9C515"/>
<path d="M14.8348 22.3254C13.3183 22.3254 12.0784 23.5563 12.0784 25.0815C12.0784 26.5978 13.3094 27.8376 14.8348 27.8376C16.3513 27.8376 17.5913 26.6068 17.5913 25.0815C17.5824 23.5652 16.3513 22.3254 14.8348 22.3254ZM14.8348 26.4819C14.0677 26.4819 13.4343 25.8575 13.4343 25.0815C13.4343 24.3145 14.0587 23.6812 14.8348 23.6812C15.6109 23.6812 16.2354 24.3055 16.2354 25.0815C16.2265 25.8486 15.602 26.4819 14.8348 26.4819Z" fill="#E9C515"/>
<path d="M26.146 17.5625C26.1193 17.5625 26.0925 17.5625 26.0747 17.5625C25.7268 17.5625 25.4413 17.8212 25.4056 18.169C25.3878 18.3474 25.4413 18.5258 25.5484 18.6685C25.6643 18.8112 25.8249 18.9004 26.0033 18.9183C27.725 19.1056 29.0274 20.5595 29.0274 22.2988C29.0274 24.1719 27.502 25.6972 25.6287 25.6972C23.8981 25.6972 22.453 24.4038 22.2478 22.6913C22.2121 22.3523 21.9177 22.0937 21.5787 22.0937C21.552 22.0937 21.5252 22.0937 21.4985 22.1026C21.3201 22.1204 21.1595 22.2096 21.0435 22.3523C20.9275 22.4951 20.8829 22.6734 20.9008 22.8518C21.1773 25.2423 23.2112 27.053 25.6287 27.053C28.2513 27.053 30.3833 24.9212 30.3833 22.2988C30.3744 19.8638 28.5546 17.8301 26.146 17.5625Z" fill="#E9C515"/>
<path d="M24.6027 14.1194C24.7811 14.1194 24.9595 14.048 25.0844 13.9232C25.2093 13.7983 25.2806 13.62 25.2806 13.4416C25.2806 13.2632 25.2093 13.0849 25.0844 12.96C24.9595 12.8351 24.7811 12.7638 24.6027 12.7638C24.4243 12.7638 24.2459 12.8351 24.121 12.96C23.9962 13.0849 23.9248 13.2632 23.9248 13.4416C23.9248 13.62 23.9962 13.7983 24.121 13.9232C24.2459 14.048 24.4243 14.1194 24.6027 14.1194Z" fill="#E9C515"/>
<path d="M20.1157 28.783C19.9373 28.783 19.7589 28.8543 19.634 28.9792C19.5091 29.104 19.4377 29.2824 19.4377 29.4608C19.4377 29.6392 19.5091 29.8176 19.634 29.9424C19.7589 30.0673 19.9373 30.1387 20.1157 30.1387C20.2941 30.1387 20.4726 30.0673 20.5974 29.9424C20.7223 29.8176 20.7937 29.6392 20.7937 29.4608C20.7937 29.2824 20.7223 29.104 20.5974 28.9792C20.4636 28.8543 20.2941 28.783 20.1157 28.783Z" fill="#E9C515"/>
<path d="M11.2577 19.4088C11.0793 19.4088 10.9009 19.4802 10.776 19.6051C10.6511 19.7299 10.5797 19.9083 10.5797 20.0867C10.5797 20.2651 10.6511 20.4435 10.776 20.5684C10.9009 20.6933 11.0793 20.7646 11.2577 20.7646C11.4362 20.7646 11.6146 20.6933 11.7395 20.5684C11.8644 20.4435 11.9357 20.2651 11.9357 20.0867C11.9357 19.9083 11.8644 19.7299 11.7395 19.6051C11.6146 19.4802 11.4362 19.4088 11.2577 19.4088Z" fill="#E9C515"/>
<path d="M22.7204 20.0957C22.8988 20.0957 23.0772 20.0243 23.2021 19.8994C23.327 19.7746 23.3983 19.5961 23.3983 19.4177C23.3983 19.2393 23.327 19.0609 23.2021 18.936C23.0772 18.8111 22.8988 18.7397 22.7204 18.7397C22.542 18.7397 22.3636 18.8111 22.2387 18.936C22.1138 19.0609 22.0425 19.2393 22.0425 19.4177C22.0425 19.5961 22.1138 19.7746 22.2387 19.8994C22.3725 20.0243 22.542 20.0957 22.7204 20.0957Z" fill="#E9C515"/>
</svg>
