<svg width="38" height="38" viewBox="0 0 38 38" fill="none" xmlns="http://www.w3.org/2000/svg">
<path d="M37.5754 30.1476C37.0224 29.5946 27.2098 19.7832 26.3267 18.9002L36.9064 8.32171C37.4684 7.75978 37.7806 7.00164 37.7896 6.20781C37.7896 5.41398 37.4773 4.65582 36.9153 4.0939L33.704 0.882904C33.142 0.32098 32.3926 0.00879791 31.5898 0.00879791C30.787 0.00879791 30.0376 0.32098 29.4756 0.882904L18.8959 11.4614L7.64715 0.213947C7.51334 0.080155 7.32603 -0.00012207 7.12977 -0.00012207C6.93352 -0.00012207 6.74619 0.080155 6.61238 0.213947L0.216381 6.60918C0.0825739 6.74297 0.00227624 6.93028 0.00227624 7.12651C0.00227624 7.32274 0.0825739 7.51004 0.216381 7.64383L11.4651 18.8912L3.4902 26.8652C3.40992 26.9455 3.34747 27.0436 3.31179 27.1506L0.0379713 36.8104C-0.0512337 37.078 0.0201303 37.3634 0.216381 37.5596C0.350189 37.6934 0.537502 37.7737 0.733753 37.7737C0.814038 37.7737 0.885411 37.7648 0.965695 37.738L10.6355 34.4646C10.7426 34.4289 10.8407 34.3665 10.921 34.2862L18.8959 26.3122L30.1447 37.5596C30.2785 37.6934 30.4658 37.7737 30.6621 37.7737C30.8583 37.7737 31.0456 37.6934 31.1794 37.5596L37.5754 31.1644C37.7182 31.0306 37.7896 30.8433 37.7896 30.6471C37.7896 30.4687 37.7093 30.2814 37.5754 30.1476ZM25.2919 19.9348L28.0305 22.6731L26.9511 23.7523C26.8173 23.8861 26.737 24.0734 26.737 24.2697C26.737 24.4659 26.8173 24.6532 26.9511 24.787C27.0939 24.9208 27.2723 25.0011 27.4685 25.0011C27.6648 25.0011 27.8521 24.9208 27.9859 24.787L29.0653 23.7077L31.224 25.8662L30.1447 26.9455C30.0109 27.0882 29.9306 27.2666 29.9306 27.4628C29.9306 27.659 30.0109 27.8464 30.1447 27.9801C30.2785 28.1139 30.4658 28.1942 30.6621 28.1942C30.8583 28.1942 31.0456 28.1139 31.1794 27.9801L32.2588 26.9009L36.0233 30.6649L30.6621 36.0255L19.9307 25.2954L25.2919 19.9348ZM7.20112 29.55L5.04236 27.3915L24.391 8.04521L26.5497 10.2037L7.20112 29.55ZM9.03875 33.4656L1.87558 35.9184L4.32872 28.7561L9.03875 33.4656ZM8.23591 30.5846L27.5934 11.2384L29.7522 13.3969L10.4036 32.7431L8.23591 30.5846ZM35.8627 7.28706L33.9805 9.16905L28.6193 3.80848L30.5015 1.92648C30.787 1.64105 31.1705 1.4805 31.5809 1.4805C31.9912 1.4805 32.3659 1.64105 32.6513 1.92648L35.8627 5.13747C36.4604 5.72616 36.4604 6.68945 35.8627 7.28706ZM32.9457 10.2037L30.787 12.3622L25.4257 7.00163L27.5845 4.84313L32.9457 10.2037ZM9.80593 6.6181C9.67212 6.75189 9.59182 6.9392 9.59182 7.13543C9.59182 7.33165 9.67212 7.51896 9.80593 7.65275C9.93973 7.78654 10.127 7.86682 10.3233 7.86682C10.5195 7.86682 10.7069 7.78654 10.8407 7.65275L11.9201 6.5735L14.0788 8.73201L12.9994 9.81126C12.8656 9.95397 12.7854 10.1324 12.7854 10.3286C12.7854 10.5248 12.8656 10.7121 12.9994 10.8459C13.1333 10.9886 13.3206 11.06 13.5168 11.06C13.7131 11.06 13.9004 10.9797 14.0342 10.8459L15.1136 9.76666L17.8522 12.5049L12.491 17.8655L1.75961 7.13543L7.12084 1.77485L10.8853 5.53885L9.80593 6.6181Z" fill="#E9C515"/>
</svg>
