<svg width="17" height="18" viewBox="0 0 17 18" fill="none" xmlns="http://www.w3.org/2000/svg">
<path d="M8.36465 12.3958H9.11773C9.11773 12.3958 9.34466 12.3712 9.46078 12.2483C9.56774 12.1355 9.56437 11.923 9.56437 11.923C9.56437 11.923 9.54992 10.929 10.0182 10.783C10.4808 10.6388 11.0739 11.7433 11.7027 12.1687C12.1782 12.4897 12.5396 12.4195 12.5396 12.4195L14.2206 12.3963C14.2206 12.3963 15.0999 12.3432 14.6832 11.6622C14.649 11.6067 14.4399 11.1586 13.4324 10.2386C12.3782 9.27544 12.5193 9.43146 13.7894 7.76504C14.5632 6.75021 14.872 6.13087 14.7757 5.86531C14.6837 5.61255 14.1146 5.67989 14.1146 5.67989L12.2211 5.69079C12.2211 5.69079 12.0809 5.6723 11.9768 5.73348C11.8747 5.7937 11.8096 5.93312 11.8096 5.93312C11.8096 5.93312 11.5099 6.71843 11.1105 7.38614C10.2673 8.79505 9.93007 8.8695 9.79227 8.78225C9.47186 8.5788 9.55184 7.96279 9.55184 7.52603C9.55184 6.16075 9.7624 5.59121 9.1423 5.4442C8.93608 5.39488 8.78479 5.36263 8.25817 5.35789C7.58266 5.35078 7.01075 5.35979 6.68745 5.51581C6.47208 5.62014 6.30537 5.85108 6.40703 5.86436C6.53231 5.88096 6.81561 5.93976 6.96546 6.14083C7.15963 6.40118 7.1524 6.984 7.1524 6.984C7.1524 6.984 7.2637 8.59161 6.89174 8.79078C6.63686 8.92783 6.28658 8.64804 5.53495 7.37001C5.14998 6.71559 4.85944 5.99145 4.85944 5.99145C4.85944 5.99145 4.80355 5.8563 4.70333 5.78374C4.58192 5.69601 4.4128 5.66803 4.4128 5.66803L2.61322 5.67989C2.61322 5.67989 2.3434 5.687 2.24415 5.80271C2.1555 5.90609 2.23692 6.11854 2.23692 6.11854C2.23692 6.11854 3.64575 9.36174 5.24056 10.9964C6.70431 12.4945 8.36465 12.3958 8.36465 12.3958ZM12.1585 17.2495H4.84162C2.17573 17.2495 0.00708008 15.1155 0.00708008 12.4911V5.2896C0.00708008 2.66621 2.17573 0.531738 4.84162 0.531738H12.1585C14.8239 0.531738 16.993 2.66574 16.993 5.2896V12.4911C16.993 15.115 14.8239 17.2495 12.1585 17.2495Z" fill="white"/>
</svg>
