<svg width="18" height="18" viewBox="0 0 18 18" fill="none" xmlns="http://www.w3.org/2000/svg">
<path d="M12.5404 17.2495H5.45959C2.8797 17.2495 0.781006 15.1155 0.781006 12.4911V5.2896C0.781006 2.66621 2.8797 0.531738 5.45959 0.531738H12.5404C15.1198 0.531738 17.219 2.66574 17.219 5.2896V12.4911C17.219 15.115 15.1198 17.2495 12.5404 17.2495ZM9 13.1707C6.67936 13.1707 4.79096 11.2506 4.79096 8.89037C4.79096 6.52969 6.67936 4.61004 9 4.61004C11.3206 4.61004 13.2091 6.53017 13.2091 8.89037C13.2091 11.2506 11.3206 13.1707 9 13.1707ZM9 6.04314C7.45617 6.04314 6.20003 7.32022 6.20003 8.89037C6.20003 10.4605 7.45617 11.7381 9 11.7381C10.5443 11.7381 11.8 10.4605 11.8 8.89037C11.8 7.32022 10.5443 6.04314 9 6.04314ZM14.4008 4.36535C14.4008 4.93346 13.9481 5.39393 13.3895 5.39393C12.8304 5.39393 12.3777 4.93346 12.3777 4.36535C12.3777 3.79675 12.8304 3.33628 13.3895 3.33628C13.9481 3.33628 14.4008 3.79675 14.4008 4.36535ZM5.45959 1.96484C3.65698 1.96484 2.19008 3.45626 2.19008 5.2896V12.4911C2.19008 14.3245 3.65698 15.8164 5.45959 15.8164H12.5404C14.3435 15.8164 15.8099 14.3245 15.8099 12.4911V5.2896C15.8099 3.45626 14.3435 1.96484 12.5404 1.96484H5.45959Z" fill="white"/>
</svg>
