<svg width="36" height="35" viewBox="0 0 36 35" fill="none" xmlns="http://www.w3.org/2000/svg">
<path d="M31.7369 9.08817C31.3841 9.25448 31.1137 9.5504 30.985 9.91086C30.8563 10.2713 30.8799 10.6668 31.0506 11.0103C32.0209 12.9612 32.5213 15.102 32.5137 17.2697C32.5137 25.2056 25.8835 31.6611 17.7347 31.6611C9.58599 31.6611 2.95579 25.2056 2.95579 17.2697C2.95579 9.33372 9.58507 2.87828 17.7347 2.87828C21.067 2.8635 24.3042 3.95913 26.9088 5.98323C27.059 6.11228 27.2346 6.21025 27.4249 6.27117C27.6153 6.33209 27.8163 6.3547 28.0159 6.33761C28.2155 6.32053 28.4094 6.26411 28.5859 6.17179C28.7623 6.07946 28.9177 5.95316 29.0425 5.80055C29.1673 5.64795 29.259 5.47223 29.3119 5.28407C29.3648 5.0959 29.3779 4.89923 29.3503 4.706C29.3227 4.51277 29.2551 4.32701 29.1515 4.16002C29.048 3.99302 28.9106 3.84827 28.7478 3.73457C25.613 1.3182 21.7328 0.00238204 17.7347 0C7.95569 0 0 7.74797 0 17.2697C0 26.7914 7.95569 34.5394 17.7347 34.5394C27.5138 34.5394 35.4695 26.7923 35.4695 17.2697C35.479 14.6682 34.8788 12.0988 33.7145 9.75737C33.63 9.58676 33.5118 9.43407 33.3666 9.30805C33.2214 9.18202 33.0521 9.08515 32.8683 9.02298C32.6846 8.9608 32.4901 8.93456 32.2959 8.94575C32.1018 8.95694 31.9118 9.00534 31.7369 9.08817Z" fill="#E9C515"/>
<path d="M17.7347 5.75659C17.3428 5.75659 16.9669 5.90822 16.6897 6.17811C16.4125 6.448 16.2568 6.81405 16.2568 7.19573V17.2697C16.2568 17.6514 16.4125 18.0175 16.6897 18.2873C16.9669 18.5572 17.3428 18.7089 17.7347 18.7089H25.1242C25.5162 18.7089 25.8921 18.5572 26.1692 18.2873C26.4464 18.0175 26.6021 17.6514 26.6021 17.2697C26.6021 16.888 26.4464 16.522 26.1692 16.2521C25.8921 15.9822 25.5162 15.8306 25.1242 15.8306H19.2126V7.19573C19.2126 6.81405 19.0569 6.448 18.7798 6.17811C18.5026 5.90822 18.1267 5.75659 17.7347 5.75659Z" fill="#E9C515"/>
</svg>
